<svg width="48" height="48" viewBox="0 0 48 48" fill="none" xmlns="http://www.w3.org/2000/svg">
<circle cx="24" cy="24" r="24" transform="matrix(-1 0 0 1 48 0)" fill="#E97862"/>
<path d="M23.9993 12.332C30.416 12.332 35.666 17.582 35.666 23.9987C35.666 26.682 34.7327 29.2487 32.9827 31.3487L35.316 33.682C35.7827 34.1487 35.7827 34.8487 35.316 35.3154C35.0827 35.5487 34.8493 35.6654 34.4993 35.6654H23.9993C17.5827 35.6654 12.3327 30.4154 12.3327 23.9987C12.3327 17.582 17.5827 12.332 23.9993 12.332ZM27.4993 18.1654H20.4993C19.7993 18.1654 19.3327 18.632 19.3327 19.332C19.3327 20.032 19.7993 20.4987 20.4993 20.4987H27.4993C28.1993 20.4987 28.666 20.032 28.666 19.332C28.666 18.632 28.1993 18.1654 27.4993 18.1654ZM20.4993 29.832H27.4993C28.1993 29.832 28.666 29.3654 28.666 28.6654C28.666 27.9654 28.1993 27.4987 27.4993 27.4987H20.4993C19.7993 27.4987 19.3327 27.9654 19.3327 28.6654C19.3327 29.3654 19.7993 29.832 20.4993 29.832ZM18.166 25.1654H29.8327C30.5327 25.1654 30.9993 24.6987 30.9993 23.9987C30.9993 23.2987 30.5327 22.832 29.8327 22.832H18.166C17.466 22.832 16.9993 23.2987 16.9993 23.9987C16.9993 24.6987 17.466 25.1654 18.166 25.1654Z" fill="white"/>
</svg>
